<mxfile host="app.diagrams.net" modified="2023-07-30T07:47:32.001Z" agent="Mozilla/5.0 (Windows NT 10.0; Win64; x64) AppleWebKit/537.36 (KHTML, like Gecko) Chrome/115.0.0.0 Safari/537.36" etag="iBsb5x8l95bvo07rLXqA" version="21.6.2" type="github">
  <diagram name="Page-1" id="mMjcrVmF057s-cYZKARp">
    <mxGraphModel dx="1595" dy="632" grid="0" gridSize="10" guides="1" tooltips="1" connect="1" arrows="1" fold="1" page="0" pageScale="1" pageWidth="850" pageHeight="1100" math="0" shadow="0">
      <root>
        <mxCell id="0" />
        <mxCell id="1" parent="0" />
        <mxCell id="ZOLhoiJWXAgXSTqIeIC7-1" value="" style="ellipse;whiteSpace=wrap;html=1;aspect=fixed;" vertex="1" parent="1">
          <mxGeometry x="380" y="350" width="80" height="80" as="geometry" />
        </mxCell>
        <mxCell id="ZOLhoiJWXAgXSTqIeIC7-2" value="" style="shape=image;verticalLabelPosition=bottom;labelBackgroundColor=default;verticalAlign=top;aspect=fixed;imageAspect=0;image=data:image/png,iVBORw0KGgoAAAANSUhEUgAAAfQAAAH0CAYAAADL1t+KAAAACXBIWXMAAA7EAAAOxAGVKw4bAAA7NElEQVR4Xu3dB5hcVf0w4LsJJfTQeygSeu+9iiAIhCKolL8iRQE7CggoXUFBBVFRFBFUUClKB2lKLxGkQ+i9EyQhfb/fWXbmm2y2zO6eu5nsvvM882TZufecc9877O+eXhReBAgQIECAAAECBAgQIECAAAECBAgQIECAAAECBAgQIECAAAECBAgQIECAAAECBAgQIECAAAECBAgQIECAAAECBAgQIECAAAECBAgQIECAAAECBAgQIECAAAECBAgQIECAAAECBAgQIECAAAECBAgQIECAAAECBAgQIECAAAECBAgQIECAAAECBAgQIECAAAECBAgQIECAAAECBAgQIECAAAECBAgQIECAAAECBAgQIECAAAECBAgQIECAAAECBAgQIECAAAECBAgQIECAAAECBAgQIECAAAECBAgQIECAAAECBAgQIECAAAECBAgQIECAAAECBAgQIECAAAECBAgQIECAAAECBAgQIECAAAECBAgQIECAAAECBAgQIECAAAECBAgQIECAAAECBAgQIECAAAECBAgQIECAAAECBAgQIECAAAECBAgQIECAAAECBAgQIECAAAECBAgQIECAAAECBAgQIECAAAECBAgQIECAAAECBAgQIECAAAECBAgQIECAAAECBAgQIECAAAECBAgQIECAAAECBAgQIECAAAECBAgQIECAAAECBAgQIECAAAECBAgQIECAAAECBAgQIECAAAECBAgQIECAAAECBAgQIECAAAECBAgQIECAAAECBAgQIECAAAECBAgQIECAAAECBAgQIECAAAECBAgQIECAAAECBAgQIECAAAECBAgQIECAAAECBAgQIECAAAECBAgQIECAAAECBAgQIECAAAECBAgQIECAAAECBAgQIECAAAECBAgQIECAAAECBAgQIECAAAECBAgQIECAAAECBAgQIECAAAECBAgQIECAAAECBAgQIECAAAECBAgQIECAAAECBAgQIECAAAECBAgQIECAAAECBAgQIECAAAECBAgQIECAAAECBAgQIECAAAECBAgQIECAAAECBAgQIECAAAECBAgQIECAAAECBAgQIECAAAECBAgQIECAAAECBAgQIECAAAECBAgQIECAAAECBAgQIECAAAECBAgQIECAAAECBAgQIECAAAECBAgQIECAAAECBAgQIECAAAECBAgQIECAAAECBAgQIECAAAECBAgQIECAAAECBAgQIECAAAECBAgQIECAAAECBAgQIECAAAECBAgQIECAAAECBAgQIECAAAECBAgQIECAAAECBAgQIECAAAECBAgQIECAAAECBAgQIECAAAECBAgQIECAAAECBAgQIECAAAECBAgQIECAAAECBAgQIECAAAECBAgQIECAAAECBAgQIECAAAECBAgQIECAAAECBAgQIECAAAECBAgQIECAAAECBAgQIECAAAECBAgQIECAAAECBAgQIECAAAECBAgQIECAAAECBAgQIECAAAECBAgQIECAAAECBAgQIECAAAECBAgQIECAAAECBAgQIECAAAECBAgQIECAAAECBAgQIECAAAECBAgQIECAAAECBAgQIECAAAECBAgQIECAAAECBAgQIECAAAECBAgQIECAAAECBAgQIECAAAECBAgQIECAAAECBAgQIECAAAECBAgQIECAAAECBAgQIECAAAECBAgQIECAAAECBAgQIECAAAECBAgQIECAAAECBAgQIECAAAECBAgQIECAAAECBAgQIECAAAECBAgQIECAAAECBAgQIECAAAECBAgQIECAAAECBAgQIECAAAECBAgQIECAAAECBAgQIECAAAECBAgQIECAAAECBAgQIECAAAECBAgQIECAAAECBAgQIECAAAECBAgQIECAAAECBAgQIECAAAECBAgQIECAAAECBAgQIECAAAECBAgQIECAAAECBAgQIECAAAECBAgQIECAAAECBAgQIECAAAECBAgQIECAAAECBAgQIECAAAECBAgQIECAAAECBAgQIECAAAECBAgQIECAAAECBAgQIECAAAECBAgQIECAAAECBAgQIECAAAECBAgQIECAAAECBAgQIECAAAECBAgQIECAAAECBAgQIECAAAECBAgQIECAAAECBAgQIECAAAECBAgQIECAAAECBAgQIECAAAECBAgQIECAAAECBAgQIECAAAECBAgQIECAAAECBAgQyCbQlC0lCc3QAq8/07zmm88Xq73/RjEsLqT2ezFl7oWKF+ZZsHh2yVWbbp+hL1LhCRAg0I8FBPR+fHM7u7RxHzQPHXVvseuou4u9XnykWHv8mGKOOH5wvAe1ntfcGtjTv1Pinf5tXm794l9Lrlpcs8qWxXlD5mz63wDlc9kECBBoOAEBveFuSbkFikA+351/KU54+OZiRATxeSO32VoD96TWwJ0KkL4XE+M9S2sgT79LAX3mms/GrrJVcdnGexYnzbNw09PlllrqBAgQINCVgIDelVA/+vyOi5uPv//K4uAI5Au1Bu9xrQG6acGli/sXWrp4IJrXn0+fRS38zhcfLjaOnwdHM/xSo98shr30SLFN+u9Wkpni31Sbn7TOp4qzNtqzOC5q7O/3Iy6XQoAAgRlKQECfoW5Xzwob/eNrX3d2cfYbzxZrRApDWoP5h0usUty46lbFBdGMfmUE4/FdpR61+9lG3VPsHLX7/SO4bxLHzxrvFNgnzDpH8couRxT7D1u16eau0vE5AQIECOQXENDzmzZUig/f1PzFa39e/DgKNXtrwcZGIL91472KH0bwvaunhR39evNiN59XnBIBfo/Wh4TUJD820j1j472aju9pus4jQIAAgZ4JCOg9c2v4s5qbm5tuOa/4eTSxf641mA+adfbihe2/Unxp+AZNN+S6gBcebt7k2rOK37z/ZrF8pJma4FPf+l8/+ZWmL+TKQzoECBAg0LWAgN610Qx5xDVnNV/8yM3FtlH4NJCtOWrlN4w4otgnmtY/zH1B0RQ/z82/K0575JZin0g79bFPSgPmIqjvmzsv6REgQIBA+wICej/8Ztx+UfNJMZL94Li0NEp9ckwx+90nv9p0eNmXGvl+N/I9MvJJI+fHR1C/OIL6F8vOV/oECBAg8P/nHLPoJwJP3d28UwTV1Nydmr8npPnifRHME98mn2k6ZfvDikPjx7Gpph4tBLved0XzV/oJrcsgQIBAQwtUFhFp6EIqXH0CMVBt6RgAd3ocnZrZB0cwPz+C+bfqOzvPUatu3XRBTGE7NVJLi9HMGf34x0c/+2Z5UpcKAQIECHQkIKD3o+9GBPPfxhzzoXFJQ2Je+cit9i+Omx6Xl2rqMRXu0sg7LVYzW5Tr7OlRDnkSIEBgIAkI6P3kbsf0tP1iCdfV43Jmj9Hs78UAuH1jANwH0+vyoun9sCjHa5H/TLEwzbLRv37M9CqLfAkQIDAQBAT0fnCXY5T5XHf8pTgiLiUt9DJ5o72Kk2M51pfbu7Q0na0373q54mFidEyR+1ocPyHes4y8qvhydAksXu/5vT0uXWNv03A+AQIEZiQBf/RKuFsfvNs8/5VnFJdH0i0bmsQ7OddjXTmm9tj0c0ojvSr/Vn+edbbifwstW9wbA+G+ngLn3AsWT6+/a/Gzx29vmUKWVnFL56cHt/RuW4badLsqX23eKf+211TZwCU1s0+O96QlVipufemxYuNYVW6LVPbo07908MzFxHdeKVauKVM6L73bvtpe8zTXXnNCZQOZ2nIN3uaA4oAFl2p6pJ20/YoAAQL9TiD9wffKLJD6sSOIbRDJpsFpuV+V4JcC56BYR/13Mf/78/FzyxKsm+5d/ODGXxenjh9bLNYadHPnX296k8Ngnb1OLHa8+NhinThpnijn3pvvV5z83xtaylv2a8rY0cWCZWcifQIECDSKgCb3Eu7EpAktTd/t1Tpz5Fapbae0Bs0xX/FG9FEvEj8Pjtr5a2+/WKwQwXzu6RzMU9nSAjPND15X7BMD5K6Pn1OtfXw87Mw685BiTA6ILtKYMml8y3x4LwIECAwIAQG9hNs8cXzLuuldNWH3Juf0sDBT7Ih2zyuPt7QEtDRzxzrqP3jgmuKg+HnO3iSe8dzZH7+t2DcWmLmwtYzNj/272GXFTYpLMubRUVKD4sFKQO8DaFkQINAYAgJ6CfchAkna0azMV9qrvGn4BsVlsTlKWt411YbTvZzSILXzyrWnleoGvfdasVy0HqRBelOiNWHxRYYX95WJU0lbQO8LZXkQINAoAgJ6CXeiNZCUXUNvamoqUmBP255Oimbty5+8s9glfk5BtJFeszx6S7FflO/qFNBTgI9ugRVnma30ZvfmPniwaiRnZSFAYIALCOglfAGi77ayVWkJqX+U5AJLFU+8NqpYN35seXCIgHnVM/cX28WPqbbeSK/Bbz5frLnYisXtUaiW0ehvPFesvvhKxb9b/7u0skbXxxylJS5hAgQINJiAgF7CDemDGvqgmBJ254uPFlunGm/rOzXzN+r9nDjhw2K+KF8aLDhTjH5fLwJ6CvCp77+sV1PcBwG9LF3pEiDQcAKNGgAaDqo7BeqDvtuZ5luseC76oxeKcg2OFdlmevulYuP4uVEHgQ158eFih9jC9fkoY5rKN2XQoJZg3nZue3eYuzo2DYoT0LtS8jkBAv1GQEAv4Va2jnIvIeWWJFsC4ZTmj/Y5j3fTgssUz0S/dGp+b9RX01vPF2sttHTxWCpvvCfPOkfxTvq3zALHfWiU0f5lXqa0CRAg0CIgoJfwRYiaYZnT1loGwcWAuBQY0yCzyREo746AvkAJl5IryQnRj754BPEnIsFxqfwfvFPMX/bAuMkTG7bFIperdAgQIFAVENBL+DLEoLjU1FvG4LRxcwwtXt/ntGKrcR9UB96Ni0D59Fo7FKdEntNtM5YuGCeusV1x5kLLFP+K49KiMml0/qT9zijWiq6DkSXcgpYkJ45TQy/LVroECDSegIBewj1praHnTrllytenjy92XGS5prvi58qyven3Y9fduennK2zSsmVpqsE30mvCkqsUN217cNO34sHjlVTWeE9+87lizaELN70U17PDTDO3NL9nf+lDz04qQQIEGlhAQC/h5pQ0XWr8sNWKfy6wZNPjrUVOfelpJ7NBESjfTr9bfdvivPinzJHjPdGauMb2xW9bT0wPHy2r2o37aN/2Yq75m15fboPi2vS7niTe2TmTJpa+wE/uIkuPAAECPRYQ0HtM1/GJJdUMm+ecr3izkus8C7U0VadpYDMP/2it9GLexVr6qFNgLHP0eHfFpsQqcc+mk6Kv/+kYkZ+6IuaIWvvNNdfyQvycfe37aHJv1FH/3TV0PAECBLoUsNtal0TdP6Ck0dUzxTS1YZXSrLp10wWvP9P8wJA5itGVvc8/eLtYOj6vd6vW7l9Yz86YEuVaNk79b+yR/r/YE32z0W8WSwxbtemOSnKj3yiWip+zjzmIQXFl7HbXMwVnESBAoGQBNfQSgEsaXT1L7C2+2mujmqvT0xZetumhCOapdls0Nzc3PfTP4sD4sdEe0oY8dGOxX7U2HuWdKpi/3rxMbOCSVrjL/l2MlpJGWwa3hG+bJAkQIPCRQPY/omBjdPX4lu1Ly3jNc8XpxS/Hjm6eap/vFMzv+3vxnQicu0emjdbMPOuzI4ttbj2/+QdtQcaPbZ778h8WF5VV5rgPqUvCiwABAgNCoMwNRAYEYHsX+ccjm0e++mSxVkkA42YfWjy7yWeK0+ddtHg65nevPuruYsSLsZxqa2DM3nSd6TrGLrJc8d/hGxaXxb/3xzz0xW6/qDgyuhGWKSugR9/9Ewed07RipvJLhgABAg0t0GjNsw2NVW/hYh56mTXDIWPfKz52w6+Kn7aWJ7WypPuY+osb+QFt9thMZsN4pwedyoj2VObS+rmjhq7Jvd4vreMIEJjhBQT0Em5h9N2WFqRai5sCVXq3LP1awiWUmWSZDztTlTvug+93mXdS2gQINJSAPvQSbkcfBPRKqWe0YF6CdsdJxrS1Pnt46NMLkxkBAgTaERDQS/haRFNv2TX0EkrdL5NspPn4/RLYRREg0DgCAnoJ96IPa+gllL5fJTl43JhmtfR+dUtdDAECHQkI6CV8N8x/LgG1Z0k2xb0Y0rNTnUWAAIEZS0BAz3y/Jo5vqRHq287s2sPkBkdAb7R5+T28FKcRIECgcwEBPfM3pLVG2KhzwTNfbcMnNyimEM7Z8KVUQAIECGQQENAzINYm0boxixp6ZtceJjeopK1se1gcpxEgQKA8AQE9s22McJ9dk3tm1J4nN2jihJb74UWAAIF+LyCgZ77FrX22auiZXXuYXFM0uQ+YgL7kkku+Fu934/3ON7/5zbPamsXv32j9/O34/Mwemvbr084444zDw+itVqfXXnzxxUX69QW7uH4lYCWtzLdTQM8M2rvkBtQo9wg+C1e43n///Xna0sXn1U192vu8d9T94+wxY8bMGU7zV65m8uTJ1pToH7d2QFyFGnrm2xw1wjSqWg09s2tPkxvAo9yndGHW1ec9JZ/Rz+Myo9/BAVx+AT3zzVdDzwzau+QGtY5p6F0qzh5IAm0fxj2cD6S7P4Nfq4Ce+QYK6JlBe5dcanI3D713hs4mQGAGERDQM9+oqBHOEUlyzezaw+QG8sIy1rHv4ZemzWkc8zhKpQ8EBJ7MyK01Qq6ZXXuYXFpYZsCMcu+mkUDVTTCHE2h0AaPcM9+h1hq6frfMrj1NrlEWlnnrrbfmjdHTw1599dXF03vSpEkzLbbYYi8tuuiiLy+++OIvx7+v9/Qanff/BT788MMh99xzz3phvdR7770374ILLvjGsGHDnhs+fPioBRZY4O06rDzo1IHkkMYUENAz3xd9tplBe5nc9LwfDz/88EpXXHHFblddddUuCy200HpTpnQ8gHrNNdd8fKeddrrsU5/61GUbbLDBvb287AF3egTxtWMO+RERwEd88MEHs7QFmGmmmYoddtjhxs985jN/2HPPPS8eMmTI+AGH5IL7vYCm4cy3uFFqhJkva4ZNbnrcjwceeGD1CMzXrrrqqo8eddRRJ912222dBvOEG+eseOKJJx4VwfyejTba6N4bb7xxq16iD4ia5rhx42b9xje+ccb6669//0UXXbRne8E8OUaLSHH11Vdvs99++52/3nrrPfivf/1rk176Op1AwwkI6JlvSfTZpkFxXg0iEF0gfbY5SzSrz/+FL3zhD+uuu+4DV1555XY9JbjzzjvX3WabbW7aeeedr3766aeX7Wk63T1v9OjRc/3whz/87te+9rWzb7jhhm26e35fHz9x4sSZPv3pT1/6k5/85Bvdyfuhhx5aYcstt/z3D37wg6O6c55jCTS6gCb3zHdoetQIM19Cv0qur5rco3l9lU022eTyJ554Yrm2gIMGDSriszs33njj26LfPPWXvzJ48ODJ0Ze+2Guvvbbovffeu9HNN9+8+YQJE6bape8f//jHJ+++++57b7rppt223nrrW8u8MREcB2266aa3RH5rp3x+9rOfHXLJJZfsuvvuu19eZr69SfuII444Nbo0dqhNY955530vmtUvWn755Z9ceumln/3f//431wsvvLBUdHvsFA9K61eOje6Ppmg9OSWC+qD49+TelMO5BBpFQEDPfCcE9MygvUyuL+5HBIsdNttss4vffffdqVoDllpqqRe//e1vnxpB8ZII4q/9+9//7vBq4tx5ola/02mnnXZk1CBXqRz4+uuvz7f99tvfdM455xwcr3N7ydHh6f/5z3/WqgTzykEXXHDBAfFzQwb0eIBaYa211vp67QVF0/tPjznmmBPnn3/+d9q50JNSQP/Sl7706wcffHCN9HkMkhu99tprG69Q1pdKun0uoMk9M3lfNvFmLnq/TK7sleLuuOOOjaLZ95LaYD777LN/eMoppxz96KOPrnjYYYednYJ5V7hRsxy97777Xjhy5Mg1f/Ob3xy48MILv1U5J2rugyKY/+biiy/eo6t0evp55D9NEEy13Z6mV/Z555577iGpVaGSz/777//71PTeQTBvOSzGJtwTQX3DaG6/ZcUVV3wy+tE32m677a4vu6zSJ9BXAgJ6ZumoEfZZn23movfL5MqsoUdT7pIxYvqysWPHDqngxS5dL8SAti2/+93vnjLHHHOM7S7qzDPPPOnAAw88NwbSbRQj3x+sPf+AAw644P7771+ru2nWc3xM63o2arfVpudll132xbiG79Vz7vQ4JrVmVPKdbbbZxv785z8/pJ5yxMPWuEsvvXTn8F1/5ZVXfqyecxxDYEYR0OSe+U6VGUAyF3VAJFdWH3rswpX6nC956aWXqjucrbTSSo/GYLJPLLHEEi/3FjfNm45BapuNGDHiiuhf3yKlF/3BQ6I14B/x+5XnmWee//U2j7bnn3TSScc8+eST58c1DYtR43fNOeecY3LnkSO99AAVgXmZSlppEGJqFak37fnmmy+7Xb15O45AmQJq6Jl1W3dby5yq5HoqEPdj1p6e29l5559//hei+Xa9yjHRPP3u3/72tz1yBPNKmilop6lYH/vYx56t/O6ZZ55ZIuZbf7uMa0ppxmCyp2IA3o2NGsxTGWNcwQI1198czec5a9oDYrpfWd8f6U5fAQE9s3/UCKdZ1CJzFpLrhkDcj+z7WUcNcbaozR5XW4zf/e53+6+yyio5A0tL8tGX/sZf/vKXXaMpvhpooq/48BghX20Z6AZHvzg0NZvXXEhTBPhF+sWFuQgCvRQQ0HsJ2Pb0iSUEkMxFHFDJRUDP3q3061//+kupplyBjFHo1++6666XlwW7zjrrPBj95+dU0n///fdni9HwA3YOdawG93b0m0+oeNxyyy1bvP322/OV5S9dAjOKQPY/djPKhZdVzmjizV4jLKusAyHdcR/kX+gn5mfvVbGLOebNUVs/6tprry2VMwasnXDhhRfuG/3oLQsXRfP+XjGX+hsp/1wZP/LIIyuPGjVq+db0mmME+FWxROqketJ/55135rnmmmt2jDn1G8bc+sVikZ0Fo6/67UUWWeSVWJntrk9+8pPX1LmWepfZpWuORXduiHn6O6aD4wFnziOPPPLU+PHALk/u/gEt+zKkhXbi2tZ//PHHV01r8UfLyWuxEuCDUY7LYnDd491P9qMzxo8fP0uMkdgyHkq2efnll5dM6xJEd8cHMTPipRiT8UisOHjFMsss83w96UfZhsc6CCvFsanMzdtuu+110ZpRXeI2VtGbI65j25g+uWXks/gbb7yx8NChQ99Nea2xxhojd9xxx6vqmZFRT1kcM30EBPTM7mU08WYu4kBLLlvAS3CvvPLKItFPXl2gJBaMuSMGZY0sGzU2cHl1n332+UcE9c+mvGLzkUVi/fJ148ds86j/9Kc/7XfyyScfUbmW+KO/UPz8ZmfXloLI8ccff2IE7r1iel1Hhx4aXQZFmt533HHHHZujayKm+J1XCegp05jqd0DMQ/8gWi6+nWYK5LofKQDGPT4wguMG7aS5VzxInBIzHf4WK+x9J2YGVMc6dJV/PAANjbJ+J9wOjSmPc3d0/Fe+8pWzYvDl3eF21Mc//vGbO0v3r3/9617HHnvsiZVjnnvuuSXj55fiAWSRuK9HR14HdbQ0bjonLYAUD17Xx/08KgZFlv6d7srI590X0OTefbNOzyijiTdzEQdack0TxjVnazWJ6VK7pFXGKoipVtNXoJHX32vzirKMyJx324efDncNjFH+TRE8Tlh99dWf+POf/9xZMG8pYswZLyLg7B41wUfSCm2xtvpUq+J19zrSw0EE2X/WnhdjC74ea+HfHy6f7G56HR2fphDefvvt7QXz6ikxxmGPmON+X1rtr558w2G3GMj3RDwEHNVZMK+kFVPsNohgflMsUHRZ7CA3Tz15xDHpXk6OB50vRl5PxbS+wzoL5inNtHlQtLJ8Iq2LH9f9m7RzXZ15OaxBBAT0zDdiwofFbJmTlFzvBAblHKgYq7hNNQ88ajRX9q549Z8dffXXpFpU5dW2LPWn1HJke8G64+3gahIfM2bMbBFQL4vNZI6NWvk06UT/9uQVVljh2fh3mppyBPKmtIZ6NFVflZqAu1nmqQ7/4x//+Llo9n6o9pexME/aGOfqGKl/SwpOtQ9fvcmrcm40YU+KmvhLbdNKK/rttttuV8YKdit3lk90z3x3r732uiSau1Prx1SvmNXwQTSzPxUtQK/G7nDTtCxFV8+IWJHwzugW6Wh9/6nO+c53vvOT9EAS0xynWRsjFuB5P7oKRsVSxG/WfqcqBUotHvHAdGNrK00OOmn0gYCAnh85axNv/uINuBSbck4ljObL6mC4JLnccss93VeiMTXu/ei7re7pHWVZNHPeHdbIa/P54he/eH4szrJL7e9iQZ1XzjzzzK9GH+7y0c8/a/y7bJo3H/8OT79Pn9ceHzufbff5z3/+wjSfv6fXEFvSvnnrrbduGV0Rf2qbRqx/v0U8bF0XzftPpJp7N2u20xQpNstJ69yvF+nMHgMil4wm83n/8Ic/7Bt9zm9UDo7a9lyxOU+H13TWWWcdmhbvqd1GN67hrQjyx6bxC2lznMcee2z5WAdgsVRzjwC+W4xjuLG2MPEQt1LatCfl34VbU7QcVMd6pGNjbfsXw+KbUf5lYxDhPLGS4fDoQlooxjsMja6cvWOvgXtq04yWgY3Tg5uaek+/oX1/Xo//Z+r7ojZ+juPGNKfaea+aEhv/Kme4EqYaeq9qgrVXXBtEo5bzbk9Wg+uNYNSoqsvIxiCqxXqTVk/Ojdr1kTE3/tO1537ve987IW1K89WvfvWsqJk/FbXLyenz9G/896j0+9TXntZZrz0vBvaNSM3OPSlH5Zy01GsKRlGmvdob0BUBcnj0rf8k5vK/kPKPmvQ0NeOu8v/617/+0+hL3zqa8++bZZZZJqbjY8Dfe7EV64WxLvwqaZvcShoxcG6taFKfyid9Fg8em37zm988qzavz372sxeHy/JRrpPajiuYa665PkhN7Nddd93H4+FpRO2SthGIV4i8p3mI6ew6Yge9M9N5yaJtX39cy+j0UBQBfMPf/va3+0crRHUwRAyg2zjOnarcXXn5fPoJCOgZ7SNwpD4nAT2jaYaksgb0qNlUa0a5Rm135xpr/7C312zbjbS63ZIUDxCLxhr136/N4/TTT//WCSec8P2uVmpLDz5RE/1eBPDqoLuUzqmnnnpMDPCbqtWjG9dQPTR2WPvLU089tVzsEvfVCN7PtE0j7tvcaSW8aFF5Lsp7TL19+NHn/3DqIuhoNkGqYUfz9OdjIF61uyIeVD5Tm39q9o9Nen4a4wiqLSDpISe6DD4bwfTdrq43mvL/HqPgN43vW3V9/xgnsP3f//736vK3naURxkeEy9e6ukfpGqP15bzoqtimdnR8rJt/QDyorNNVOX0+/QUE9Iz3oHXZV6YZTTMkNTg2aMlWQ68NqBEkalcsy1DUrpOIptbqfOsIJq93fUa+IyKwHZOa0SspRs31Z9/61rfO6E4OMSr8tNjxrHZO/ZAIOL2qpVfyT6vbpdpk1MpXTLX2GJ1+V9uyRflnixaFE6MJ/eZoel6qq7JHgDsnxgLULmQzzSkxIO7ezTff/F+VD9I0tNqD0mDAmJFQDYhptHqs9tetKYerrbbaY9HEv3dtut///vdP6ar8UfP+c2wze1pXx9V+vsUWW9wWDwCHVn6Xuggirx90Jw3HTh8BwSeje/TVpsDBNKNpjqRyruceU3+qQTT1PaZV43KUsd40apvZo/n91XrP6+1xqXZZ2yebdmI7+uijT+pJunHe8bW1xTSnPtLPNoU2NYunJuQYnb5RLM+7wec+97mL2g78iibwzWJ+/H9SE3ln1xBbtN5fzzXWHhcPekMr6wWkc2OXvGogjnJM/tGPfvT1SrdEPWlXjtlhhx2uj9r65ZX/fuCBB1aNbW9X7yiNaLYfEy0ih3cnj8qxMZjut9HFUO1Tv/7667eO7ooFe5KWc/pOINv/RH1X5MbNqTVwCOiNdYuaWrtCspQq+mmn2njl6aefTpuEVPtQs2TSQSIxIGvuaKKtNvlHWToL6HUNcKu3vLHV6ObRxD9/5fjYCe6Byy67bESsmlfJp7YJv7PfpalRzTHd7eG77rqrZS38GEk9f/TVbho/3lJveeo9Lm2ZGsd+Nga0nR67x50WO+FtVTk3dZ+kkelxXWumAXbtpVnv2vxpl73a82OAW5peFhMCxswWAxk/XvksWgZujeD/33rL3/a4Qw899GepT73y+zSNMn5uN73og78kyj/VYMTu5BstKb8It5Y1F1IXReT1qfjxvO6k4di+FRDQM3rHsq+zR3JZ/5BmLN6ATSpaTtJ9yfKKAVAP1CYUwSn1Y/ZJQI8BUtvXjpCOgVQPxeIqWa6rq0RidPUatcekZuW2TctdpdHZ59FMnqZ73dKbNDo7Nw1oi8+3Pueccw6IxVrOjul2LXsuRP/9YtGnflz8WG1irk2nqamprql8cVy7c/jTKP+YnledNhZTD6+OAXY9vszUtJ/2ro9R8C1dL51MXWyOvK76/e9/3+O8okVgqjUWYkpeh60BPc7EiVkF1CYzcuYMHBmLNdCTylpDjznOl0WzafWP/FVXXbVzXwFHXiNq89ppp50u7au803KuZeYVe8tXt0MtM5+DDz743GhVOKA2j9hY56BoIp9mrnYvy9ES4NNSrrXpxIC9p3qTbhp8F6PUq0vBpmVoa9Kb6qGit3lFy8Jb8fAwupJ+m7x6cxnOLUlADT0jbGuTuxp6RtMcSeXsQ0+LfsRgq3srq4dFU/EGqR+zN82o9Vxj2l0tVvyqzv1OTalR68y27GtrGToc+R7rpU+1QlksgPJ0a620ve97Sqe9tCrHpn9rf26ONeM7HXhWj1G9x8T89wui9rl3mgufzolxEDOlJV7jx8s6KHe9SU9zXGvTe/X30a/9fo8Taz0xFqCpptHZ/Pq555671/u+p4AerQEt9z7ysgFOb29eyecL6BmBBfSMmPmSaopR7tma3FOxom/yb5WAHk3gg2MJ1DSKePt8RZ42pZgu9r0IDtXriDJcOnjw4M6ag7s9La2z8scOZ9UFVFLQSw8yOaftxfrhZfJNk3ZaC74S0NOHMeWtuilNDwvSrnf0zde6FW+++Wa358G3LU8MTqtunRu16Nej2b3dIrdOaxzVw+tpOa123YXIq88GYfamzAP5XE3uGe9+a+BgmtE0Q1JpHnrWgB7Ntr+IVbeqg6BisNB28d4hQ1nbTSIWL1kt+n4PqnyYRi/HvOYflpVfe+nGiPra5U6bIois0pf5585r+eWXn2rv+rTzWO48Unpt3Iq4l52Oqu+qDGk1unj4+FjluLRTWkfn9Dav6DNfIVaJq+6D0HZAaFdl9XnfCwg+Gc1zB46MRRvISQ3OfV/SIiltVz2LJT8viFW/VsgNHTW6BWL5zb/HIK5qa1rMtf5ZvaOvc5Un1hC/pTatyy+/fJrV0LqTVyx1ukqMct+w8o5tRLvVWpimucWCJ19M2492J9/Ksallpfa8uKdjepJOV+fEg8MzMQK+GnRjEONuvVlfPs4fEd+FapBte19qytMUC8/s3lX5Ovu8zfnNkdetvUnPueULCOgZjXMHjoxFG9BJlXFfoh/2vNiVqtqHHYF3vj322OPSWBs72/rqaaBWLA96yZNPPlkdMBYtA88ffvjh3VoopIOb360m+djI46kYVV/d9/u88847IJYSTXtvd/uVHnxiy9kHNtxwwzvT+//+7/9+H4O9WpaLrecVU8+2TDuCHXDAAef+4he/+HI957Q9pu2o/bJqn6lbJO1pXsk/HmSWj/n8PXoYioeYwT/+8Y+ri/CkOe2d7fYX4wK2iq6RTXrik9aVjx3avlI5N/rtR8eGN51u39qTfJyTV0BAz+gZo9xzj5TNWLqBm1R0hWS/L2lhkPSHuXZxl7TTVlqd7L777lu7t9rPPvvs0ltuueVt//znP6tbcsZKaGNjkZI9hg4dWh153Nt8unP+QQcdNNUKbxGI/zRu3LhZu5NGqp1GC8Mvoym3WiOP1dh+19HSqm3Tjg1Ldk2rvFUWVInV646OEfJp3++6X6l2HyPbD649IR4s7mj97+yDWuPB45zahW1itbzT0zK6dRe49cC0xG7anKVyXoyjuHzxxRfvdJ55TNH7VQxonKu7ecW68z9N+6hXzosWqPO7WjGvu3k4Pr+AgJ7RtIyaYMbiDdikyrovqbacNiqJP3TjK7gRiIdttdVWd0RN6vCe7FKVdh87//zz/y92vrrv/vvvn2ru969+9asDW+dTT5d7GQuN/Dw1IVcyj1XW1jzssMN+UW9QT83jsanIRTGfvrq4y/Dhw5+KNM6s94Jiqt4Vsb76g5Xjo+97wRTga/uVu0orWjh+nDYiqRwXI/afzDBLocMHgXXWWefBvffe+8JKfs8999wSaUGbNHOhq7JWPo/a8iFpu9rKf0eLxoQI8Ed3dX5aTS62a/1bvUE9PXClfe7TJi2VtNO897SHfVd5+Xz6CwjoGe9BWYEjYxEHZFI5p621BYyFPm7/85//vGc0SVanCKXtQyNo/CgWoXki5jwfGM3x1RXWOroB6Q9u2jEsliMdmZqg44999ZzUHB1/0A9tb5vQXtzQ9gJQp7XTWWeddVI0cR9Y2zwe/dj7R5n/m3YT66ws0WqxTkwVuzHWWN+zclws/zouHlK+lP6t9zpiWddJsR3rVIvApGAerRl3/PKXvzw4HqI6bDGIQDosljT9ddqopDa/WEFuql3g6i1Ld45Lm9KkB8DKObEC29pp+uMVV1zR6WDKtB95tGCcGw89Z9fmF2urnxAPIk+0KUO79y/tCx/f09titb+NOytzPIwuteeee/6t9sEhjm+Oh9Nvxwj3qUbrd+faHdt3At0aiNJ3xZoxc4qm3W43bc2YVzpjlbrsBX9GjBjxj6gJbZr60EeNGlUdgRzLwg6LZupfx3Kdv4gNOW6PWvdt0Vf7SqwH/2r0rU5Oi46kdwS79eN328R86GkGeMV0sbQ96F6xL/Y/G0E9ruOms88++6txTdUAE83Ay0erxL/TrmDRp3tFzJd/LPW5xr7eS6bpYDE9bJfoM9+6tvwx73xCdFnsHrXrm7p7XbF5yO0nn3xyLAl/9MmVc6MJe6Evf/nLv4rff++QQw65PO24FguwPBOtB0NiE5aPpZXoIgDuHgF/KuN4yLguprBVa8+RXtugmKUJPjWNxwYtu0U/9O2xclzLBjdpX/Vocbgqlqe9O75Dl4bRPSlwxnKxs0dwXTbWT98+tp/dI/Vn1xqltenjIeSUGJjZlq7Dssb3c/X08Jk2htlll10uic1e/hvfrbfSPPn4zg6/9tprd4xxErvVjmpPicfmOz9JXSLdvUeOnz4CAnpG96gJZu+rzVi8AZtUX7ScxNrm/435wRtH3+OZUWP/dDRdVlu/Up9t9IVvkd7duQkRxG9ItdG0x3h3ziv72PSAEluGToj+2V9GwGz5G5KWpI01xndJ767yjxr+pAsuuOBzMVjs6q6O7ejzCOanxO5jz6eV32q7NuIhYrFoRTiknnRTrTWNSYhpgLWHZwng7eUfA/lG3nHHHVtELfiyVM7KMWkDmfSup8zpoSVtEVvHmIPmaP34cjSfnxgtRNVNVeI7uFV615NXtAIcn96xRW49hzumAQQ0uWe8CRE41NAzeuZKqi8Ceiprql3FHtefialYG2y77bbdrnlWrjdqaiOjxrRd9DV/ohfBfKppWe1Ytvd5278HHQa3aLo+N0ZRb5lGq3fnPkX/9yOxt/dmMRXvku6c196x0R//x3DaNpr869oRrZJGCoZR8zw9fLeNYP5Bm7TbGtT7N7Kumn200tyTgncMaEur0tX9SjX81K8d3QpfTrvJ1XNiWjc+FkDaOD0Y1nN85ZgYJ/FUTEvcORb7Oa6OB4fuJO3YkgXq/bKWXIz+kXzOfbf7h0hjXEXuleK6uqqoid0XwW6bGIm9Rtr4I02x6uqcaO58Ivat/lHadSz6V9eLP8bXd3VOF593NS2tvc/b/m5SZ3nEvOTbo6zrRG1730984hM3R6Bpd+W6mBFQRG34znjY2SdtV9rePuU9vda0d3ekuW7aRW3XXXf9R2fbksaqbW9Hc/wvo4tg5ah1Ht7BqO2211BX8Izy122X5qXHaP3d0pSy1HwesxY6XA42BtQ9ECP5v5um+kXTd1c7ndU+VKSfp0RwHpUeDKP5/uNpVHxalKg96zQKf9NNN70rxmocFj6rRhdAdapdT++N8/peoLTmpb6/lOmf40XHNt/z0iNFy5aQXo0jMN/ixaP7n9U0XVc2i77yhZ9//vlhqc88BrwtFttRzpz609P851gk5qVhw4Z1uOJX40h2XpK0HenIkSPXibn4i7/zzjvzx1ri76eV0mJk/t2x7eu7fXEd0Sc8dxqAF9ZLx89D0xrxkfc70X/+cAxSfLQRa5xplkA8lKwT4wCWjG6bRdIiN+m7EQ95jyyzzDLVgXRd+aXBbGmEeuW4NAgwBuK9WHte2s41+vLXS/coLUPbeo9eju1sH6qdgtlVXj5vTAF96BnvSwy+qq7glDFZSfVSIJrcp/v3PAa9vR6Xkd799jX//POnoD1dB++1blwyQy2AEg8dadpjZR58qd+PeFj4MDL4V6mZSHy6CWhyz0gfgaNHy1BmLIKk2hGIJnf3xTeDAIF+LyCgZ7zFEdDV0DN65kqqEWroua5FOgS6IaBLtRtY/eFQAT3jXVQTzIiZMamJ44qWeb9eBAgQ6M8CAnrGu6smmBEzb1JdjfjOm5vUCBAgMB0EBPSM6OPH5N13O2PRBnpSTRMnNOsOGejfAtdPoJ8LCOh5b7CaYF7PXKk1TZlUdLXQSq68pEOAAIHpIiCgZ2KfPKk5TY3imckzdzJTJgvouU2lR4BAYwkIQJnuh4CRCbKcZJomTzIDoRxaqTaQgFHtDXQzpkdRBPRM6q0BnWcmz8zJDIom9w631cycl+QINIqALsBGuRN9VA4BKBN0BPQ06MoTcibPzMk0xf2xuExmVMkRINBYAgJ6pvvRPKWlj1ZAz+SZOZmmyR89cHkR6M8CPd0prj+bDKhrm+5rXPcX7eijTYuXeEBqzBuaRrmroTfmvVGqTAKx8cyU2PGuNrVOd8vLlK1kGkhAAMp0M6ZMadkARA09k2fmZFKTu4fXzKiSayyBo48++oQJEyY0Vd6x09rLjVVCpSlbQEDPJNz80bQoAT2TZ+Zk0ih3NfTMqJIjQKCxBAT0TPfDoLhMkOUkk5rc9aGXYytVAgQaREBAz3QjosndSmSZLMtIRpN7GarSJECgkQQE9Ex3Qw0wE2Q5yRjlXo6rVAkQaCABAT3TzVBDzwRZTjKpyd2guHJspUqAQIMICOiZbsRMsxRjI6kpmZKTTF6Bprg/H+ZNUmoECBBoLAEBPdP9mH2e4g0BPRNm/mSmzL1g8Vz+ZKVIgACBxhEQ0DPdi9nnbnp3gaWKxzMlJ5mMAnMvULw076JN5uRmNJUUAQKNJyCgZ7wnm+9THB3JadrNaJohqcmb7dtyX7wIECDQrwUE9Iy3d9l1mq7bfL/iqEhyTMZkJdVzgUkb7VmcuNJmTX/teRLOJECAwIwhYGWzEu7Tcw80b33NWcV5Y94tlozkGZdg3EWSzXMMLV7Y7tDiS/GQdW3fZy9HAgQI9L2AYFOi+evPNK/25nPFGqPfKD7WGtgr3vX+W2/pOruPHX3W9vdd/XfbvZUr/93R71PZ692Pud7vYUd5Vpwmx+C3UQstU/xn4WWbHqoXz3EECBAgQIAAAQIECBAgQIAAAQIECBAgQIAAAQIECBAgQIAAAQIECBAgQIAAAQIECBAgQIAAAQIECBAgQIAAAQIECBAgQIAAAQIECBAgQIAAAQIECBAgQIAAAQIECBAgQIAAAQIECBAgQIAAAQIECBAgQIAAAQIECBAgQIAAAQIECBAgQIAAAQIECBAgQIAAAQIECBAgQIAAAQIECBAgQIAAAQIECBAgQIAAAQIECBAgQIAAAQIECBAgQIAAAQIECBAgQIAAAQIECBAgQIAAAQIECBAgQIAAAQIECBAgQIAAAQIECBAgQIAAAQIECBAgQIAAAQIECBAgQIAAAQIECBAgQIAAAQIECBAgQIAAAQIECBAgQIAAAQIECBAgQIAAAQIECBAgQIAAAQIECBAgQIAAAQIECBAgQIAAAQIECBAgQIAAAQIECBAgQIAAAQIECBAgQIAAAQIECBAgQIAAAQIECBAgQIAAAQIECBAgQIAAAQIECBAgQIAAAQIECBAgQIAAAQIECBAgQIAAAQIECBAgQIAAAQIECBAgQIAAAQIECBAgQIAAAQIECBAgQIAAAQIECBAgQIAAAQIECBAgQIAAAQIECBAgQIAAAQIECBAgQIAAAQIECBAgQIAAAQIECBAgQIAAAQIECBAgQIAAAQIECBAgQIAAAQIECBAgQIAAAQIECBAgQIAAAQIECBAgQIAAAQIECBAgQIAAAQIECBAgQIAAAQIECBAgQIAAAQIECBAgQIAAAQIECBAgQIAAAQIECBAgQIAAAQIECBAgQIAAAQIECBAgQIAAAQIECBAgQIAAAQIECBAgQIAAAQIECBAgQIAAAQIECBAgQIAAAQIECBAgQIAAAQIECBAgQIAAAQIECBAgQIAAAQIECBAgQIAAAQIECBAgQIAAAQIECBAgQIAAAQIECBAgQIAAAQIECBAgQIAAAQIECBAgQIAAAQIECBAgQIAAAQIECBAgQIAAAQIECBAgQIAAAQIECBAgQIAAAQIECBAgQIAAAQIECBAgQIAAAQIECBAgQIAAAQIECBAgQIAAAQIECBAgQIAAAQIECBAgQIAAAQIECBAgQIAAAQIECBAgQIAAAQIECBAgQIAAAQIECBAgQIAAAQIECBAgQIAAAQIECBAgQIAAAQIECBAgQIAAAQIECBAgQIAAAQIECBAgQIAAAQIECBAgQIAAAQIECBAgQIAAAQIECBAgQIAAAQIECBAgQIAAAQIECBAgQIAAAQIECBAgQIAAAQIECBAgQIAAAQIECBAgQIAAAQIECBAgQIAAAQIECBAgQIAAAQIECBAgQIAAAQIECBAgQIAAAQIECBAgQIAAAQIECBAgQIAAAQIECBAgQIAAAQIECBAgQIAAAQIECBAgQIAAAQIECBAgQIAAAQIECBAgQIAAAQIECBAgQIAAAQIECBAgQIAAAQIECBAgQIAAAQIECBAgQIAAAQIECBAgQIAAAQIECBAgQIAAAQIECBAgQIAAAQIECBAgQIAAAQIECBAgQIAAAQIECBAgQIAAAQIECBAgQIAAAQIECBAgQIAAAQIECBAgQIAAAQIECBAgQIAAAQIECBAgQIAAAQIECBAgQIAAAQIECBAgQIAAAQIECBAgQIAAAQIECBAgQIAAAQIECBAgQIAAAQIECBAgQIAAAQIECBAgQIAAAQIECBAgQIAAAQIECBAgQIAAAQIECBAgQIAAAQIECBAgQIAAAQIECBAgQIAAAQIECBAgQIAAAQIECBAgQIAAAQIECBAgQIAAAQIECBAgQIAAAQIECBAgQIAAAQIECBAgQIAAAQIECBAgQIAAAQIECBAgQIAAAQIECBAgQIAAAQIECBAgQIAAAQIECBAgQIAAAQIECBAgQIAAAQIECBAgQIAAAQIECBAgQIAAAQIECBAgQIAAAQIECBAgQIAAAQIECBAgQIAAAQIECBAgQIAAAQIECBAgQIAAAQIECBAgQIAAAQIECBAgQIAAAQIECBAgQIAAAQIECBAgQIAAAQIECBAgQIAAAQIECBAgQIAAAQIECBAgQIAAAQIECBAgQIAAAQIECBAgQIAAAQIECBAgQIAAAQIECBAgQIAAAQIECBAgQIAAAQIECBAgQIAAAQIECBAgQIAAAQIECBAgQIAAAQIECBAgQIAAAQIECBAgQIAAAQIECBAgQIAAAQIECBAgQIAAAQIECBAgQIAAAQIECBAgQIAAAQIECBAgQIAAAQIECBAgQIAAAQIECBAgQIAAAQIECBAgQIAAAQIECBAgQIAAAQIECBAgQIAAAQIECBAgQIAAAQIECBAgQIAAAQIECBAgQIAAAQIECBAgQIAAAQIECBAgQIAAAQIECBAgQIAAAQIECBAgQIAAAQIECBAgQIAAAQIECBAgQIAAAQIECBAgQIAAAQIECBAgQIAAAQIDV+D/AZCGSHWcpM/OAAAAAElFTkSuQmCC;movable=0;resizable=0;rotatable=0;deletable=0;editable=0;locked=1;connectable=0;" vertex="1" parent="1">
          <mxGeometry x="380" y="350" width="80" height="80" as="geometry" />
        </mxCell>
        <mxCell id="ZOLhoiJWXAgXSTqIeIC7-3" value="消費者" style="whiteSpace=wrap;html=1;aspect=fixed;" vertex="1" parent="1">
          <mxGeometry x="-17" y="138" width="80" height="80" as="geometry" />
        </mxCell>
        <mxCell id="ZOLhoiJWXAgXSTqIeIC7-4" value="業者" style="whiteSpace=wrap;html=1;aspect=fixed;" vertex="1" parent="1">
          <mxGeometry x="830" y="138" width="80" height="80" as="geometry" />
        </mxCell>
        <mxCell id="ZOLhoiJWXAgXSTqIeIC7-5" value="訪客" style="whiteSpace=wrap;html=1;aspect=fixed;" vertex="1" parent="1">
          <mxGeometry x="-17" y="596" width="80" height="80" as="geometry" />
        </mxCell>
        <mxCell id="ZOLhoiJWXAgXSTqIeIC7-7" value="管理員" style="whiteSpace=wrap;html=1;aspect=fixed;" vertex="1" parent="1">
          <mxGeometry x="830" y="596" width="80" height="80" as="geometry" />
        </mxCell>
        <mxCell id="ZOLhoiJWXAgXSTqIeIC7-12" value="" style="endArrow=classic;html=1;rounded=0;exitX=1;exitY=0.5;exitDx=0;exitDy=0;entryX=0.5;entryY=0;entryDx=0;entryDy=0;fillColor=#dae8fc;strokeColor=#6c8ebf;strokeWidth=2;" edge="1" parent="1" source="ZOLhoiJWXAgXSTqIeIC7-3" target="ZOLhoiJWXAgXSTqIeIC7-2">
          <mxGeometry width="50" height="50" relative="1" as="geometry">
            <mxPoint x="161" y="213" as="sourcePoint" />
            <mxPoint x="382" y="368" as="targetPoint" />
          </mxGeometry>
        </mxCell>
        <mxCell id="ZOLhoiJWXAgXSTqIeIC7-13" value="" style="endArrow=classic;html=1;rounded=0;entryX=0.5;entryY=1;entryDx=0;entryDy=0;exitX=0;exitY=0.5;exitDx=0;exitDy=0;fillColor=#dae8fc;strokeColor=#6c8ebf;strokeWidth=2;" edge="1" parent="1" source="ZOLhoiJWXAgXSTqIeIC7-2" target="ZOLhoiJWXAgXSTqIeIC7-3">
          <mxGeometry width="50" height="50" relative="1" as="geometry">
            <mxPoint x="39" y="377" as="sourcePoint" />
            <mxPoint x="451" y="442" as="targetPoint" />
          </mxGeometry>
        </mxCell>
        <mxCell id="ZOLhoiJWXAgXSTqIeIC7-14" value="" style="endArrow=classic;html=1;rounded=0;exitX=0.5;exitY=0;exitDx=0;exitDy=0;entryX=0;entryY=0.5;entryDx=0;entryDy=0;strokeWidth=2;" edge="1" parent="1" source="ZOLhoiJWXAgXSTqIeIC7-2" target="ZOLhoiJWXAgXSTqIeIC7-4">
          <mxGeometry width="50" height="50" relative="1" as="geometry">
            <mxPoint x="401" y="492" as="sourcePoint" />
            <mxPoint x="451" y="442" as="targetPoint" />
          </mxGeometry>
        </mxCell>
        <mxCell id="ZOLhoiJWXAgXSTqIeIC7-15" value="" style="endArrow=classic;html=1;rounded=0;exitX=0.5;exitY=1;exitDx=0;exitDy=0;entryX=1;entryY=0.5;entryDx=0;entryDy=0;strokeWidth=2;" edge="1" parent="1" source="ZOLhoiJWXAgXSTqIeIC7-4" target="ZOLhoiJWXAgXSTqIeIC7-2">
          <mxGeometry width="50" height="50" relative="1" as="geometry">
            <mxPoint x="401" y="492" as="sourcePoint" />
            <mxPoint x="451" y="442" as="targetPoint" />
          </mxGeometry>
        </mxCell>
        <mxCell id="ZOLhoiJWXAgXSTqIeIC7-16" value="" style="endArrow=classic;html=1;rounded=0;exitX=0;exitY=0.5;exitDx=0;exitDy=0;entryX=0.5;entryY=1;entryDx=0;entryDy=0;strokeColor=#B5739D;strokeWidth=2;" edge="1" parent="1" source="ZOLhoiJWXAgXSTqIeIC7-7" target="ZOLhoiJWXAgXSTqIeIC7-2">
          <mxGeometry width="50" height="50" relative="1" as="geometry">
            <mxPoint x="401" y="492" as="sourcePoint" />
            <mxPoint x="451" y="442" as="targetPoint" />
          </mxGeometry>
        </mxCell>
        <mxCell id="ZOLhoiJWXAgXSTqIeIC7-17" value="" style="endArrow=classic;html=1;rounded=0;exitX=1;exitY=0.5;exitDx=0;exitDy=0;entryX=0.5;entryY=0;entryDx=0;entryDy=0;strokeColor=#B5739D;strokeWidth=2;" edge="1" parent="1" source="ZOLhoiJWXAgXSTqIeIC7-2" target="ZOLhoiJWXAgXSTqIeIC7-7">
          <mxGeometry width="50" height="50" relative="1" as="geometry">
            <mxPoint x="401" y="492" as="sourcePoint" />
            <mxPoint x="451" y="442" as="targetPoint" />
          </mxGeometry>
        </mxCell>
        <mxCell id="ZOLhoiJWXAgXSTqIeIC7-18" value="" style="endArrow=classic;html=1;rounded=0;exitX=0.5;exitY=0;exitDx=0;exitDy=0;entryX=0;entryY=0.5;entryDx=0;entryDy=0;strokeWidth=2;" edge="1" parent="1" source="ZOLhoiJWXAgXSTqIeIC7-5" target="ZOLhoiJWXAgXSTqIeIC7-2">
          <mxGeometry width="50" height="50" relative="1" as="geometry">
            <mxPoint x="401" y="492" as="sourcePoint" />
            <mxPoint x="411" y="533" as="targetPoint" />
          </mxGeometry>
        </mxCell>
        <mxCell id="ZOLhoiJWXAgXSTqIeIC7-19" value="" style="endArrow=classic;html=1;rounded=0;entryX=1;entryY=0.5;entryDx=0;entryDy=0;exitX=0.5;exitY=1;exitDx=0;exitDy=0;strokeWidth=2;" edge="1" parent="1" source="ZOLhoiJWXAgXSTqIeIC7-2" target="ZOLhoiJWXAgXSTqIeIC7-5">
          <mxGeometry width="50" height="50" relative="1" as="geometry">
            <mxPoint x="401" y="492" as="sourcePoint" />
            <mxPoint x="451" y="442" as="targetPoint" />
          </mxGeometry>
        </mxCell>
        <mxCell id="ZOLhoiJWXAgXSTqIeIC7-20" value="Text" style="text;strokeColor=none;align=center;fillColor=none;html=1;verticalAlign=middle;whiteSpace=wrap;rounded=0;" vertex="1" parent="1">
          <mxGeometry x="441" y="406" width="60" height="30" as="geometry" />
        </mxCell>
      </root>
    </mxGraphModel>
  </diagram>
</mxfile>
